<svg width="147" height="146" viewBox="0 0 147 146" fill="none" xmlns="http://www.w3.org/2000/svg">
<path d="M142.898 54.278L77.4873 140.73C75.4867 143.374 71.5133 143.374 69.5127 140.73L4.10188 54.278C2.83879 52.6086 2.74938 50.3291 3.87783 48.5659L25.1965 15.2555C25.7208 14.4363 26.4726 13.7878 27.3599 13.3894L49.523 3.43865C50.167 3.1495 50.865 3 51.571 3L95.9087 3C96.6278 3 97.3384 3.15508 97.992 3.45468L119.664 13.3877C120.536 13.7874 121.275 14.4297 121.792 15.2378L143.122 48.5659C144.251 50.3291 144.161 52.6086 142.898 54.278Z" stroke="black" stroke-width="6" stroke-linecap="round"/>
<path d="M141.159 52.5762L75.0949 139.892C74.2947 140.95 72.7053 140.95 71.9051 139.892L5.84075 52.5762C5.33552 51.9085 5.29975 50.9967 5.75113 50.2914L27.6716 16.0407C27.8813 15.713 28.182 15.4536 28.537 15.2942L51.0742 5.17546C51.3318 5.0598 51.611 5 51.8934 5L95.5775 5C95.8651 5 96.1493 5.06203 96.4108 5.18187L118.473 15.2935C118.821 15.4534 119.117 15.7103 119.324 16.0336L141.249 50.2914C141.7 50.9967 141.664 51.9085 141.159 52.5762Z" fill="#87CEEB" stroke="#4293DD" stroke-width="3" stroke-linecap="round"/>
<path d="M107 65L44 62.5L51 25.5L97.5 25.5L107 65Z" fill="#8EF6FD"/>
<path d="M107 65L97 25.5L118.5 17L140.5 51.5L107 65Z" fill="#2FC9F9"/>
<path d="M44 62.5L51 25.5L29 16.5L6.5 51.5L44 62.5Z" fill="#2FC9F9"/>
<path d="M97 25.5L118.5 17L97 6.5L51 6.5L29 16.5L51 25.5L97 25.5Z" fill="#C1F8FF"/>
<path d="M73.5 139.5L43.5 65H107L73.5 139.5Z" fill="#C1F8FF"/>
<path d="M107 65.5L107.02 64.5004L43.7821 62.0107C43.6514 62.0056 43.522 61.9834 43.3971 61.9447L10.6418 51.7951C9.69872 51.5029 9.29028 50.3951 9.81794 49.5606L29.0554 19.1386C29.4345 18.5391 30.1816 18.2871 30.8463 18.5344L50.8256 25.9686L51.2187 25.0504L36.3135 17.7992C35.2022 17.2586 35.1847 15.6815 36.2836 15.1164L49.8698 8.12922C50.0474 8.03785 50.2416 7.9829 50.4407 7.96757L63.0383 6.99853L63.0192 6.00037L50.5017 5.51893C50.1053 5.50368 49.711 5.58298 49.3513 5.75028L28.8111 15.3038C28.3848 15.5021 28.023 15.8167 27.7673 16.2113L5.85099 50.0387C5.27391 50.9294 5.32211 52.0874 5.97122 52.9271L59.6044 122.306L60.4036 121.705L14.9612 59.5694C14.1091 58.4042 15.2334 56.8257 16.6131 57.2503L43.0655 65.3894C43.3037 65.4627 43.5515 65.5 43.8007 65.5H107Z" fill="white" stroke="white"/>
</svg>
