<svg width="108" height="109" viewBox="0 0 108 109" fill="none" xmlns="http://www.w3.org/2000/svg">
<g filter="url(#filter0_d_318_193)">
<circle cx="53.5" cy="53.5" r="52" fill="#D9D9D9" stroke="black" stroke-width="3"/>
<path d="M79.5 9L75.5 5.5L61.5 1.5L53 2" stroke="black" stroke-linecap="round"/>
<path d="M53.8223 54.6701L97.4545 81.0175L97.1116 82.9997L94.1116 87.4997L85.6116 94.9997L78.784 98.9906L53.8223 54.6701L8.9998 27.6039L8 26.5L12.1257 20.5857L18.5 13.5L24 9.5L27 8L28.1005 9L53.8223 54.6701Z" fill="#613192"/>
<path d="M97.4545 81.0175L8.9998 27.6039L8 26.5L12.1257 20.5857L18.5 13.5L24 9.5L27 8L28.1005 9L78.784 98.9906L85.6116 94.9997L94.1116 87.4997L97.1116 82.9997L97.4545 81.0175Z" stroke="black" stroke-linecap="round"/>
<path d="M2.5 54.405H53L99.0062 29L100.5 29.405L104 37.405L105.5 45.405V54.405H53L8.99428 79.31L8.5 78.405L5.5 73.405L3 65.405L2 57.905L2.5 54.405Z" fill="#613192"/>
<path d="M53 2V54.405L79.5 9L78.5 7L67 2.5L58 1L53 2Z" fill="#613192"/>
<path d="M53 54.405H2.5L2 57.905L3 65.405L5.5 73.405L8.5 78.405L8.99428 79.31L53 54.405ZM53 54.405H105.5V45.405L104 37.405L100.5 29.405L99.0062 29L53 54.405ZM53 54.405V2L58 1L67 2.5L78.5 7L79.5 9L53 54.405ZM53 54.405L35.1658 84.5L27 98.5M53 54.405L52.66 89L52.5 105.5" stroke="black" stroke-linecap="round"/>
<path d="M27 98.5L36 103L48 105.5L52.5 105" stroke="black" stroke-linecap="round"/>
<path d="M35.5 84L52.5 88.5V106L39 104L27 98.5L35.5 84Z" fill="#613192"/>
<path d="M52.6006 54H52.9551L53 53.9238V53.4084L53.1485 53.6721L53.2661 53.8809L53.3332 54L53.7107 54.6703L53 54.2412L52.862 54.1578L52.8181 54.1313L52.6006 54Z" fill="#0029FF"/>
<path d="M2 54H105M8.49428 78.905L98.5062 28.595M97.3429 81.0178L8.88822 27.6042M78.6724 98.9908L28.0694 9.14326M53 105.5V2M27 98L79.5 9" stroke="black" stroke-width="3" stroke-linecap="round"/>
<circle cx="53" cy="53" r="35.5" fill="#A388EE" stroke="black" stroke-width="3"/>
<path d="M31.7856 62.182C30.139 62.182 28.605 61.9047 27.1836 61.35C25.7623 60.7953 24.5663 60.102 23.5956 59.27L26.4816 55.76C27.1056 56.28 27.877 56.7393 28.7956 57.138C29.7143 57.5193 30.6243 57.71 31.5256 57.71C32.219 57.71 32.8083 57.6233 33.2936 57.45C33.779 57.2767 34.1516 57.0253 34.4116 56.696C34.689 56.3493 34.8276 55.9507 34.8276 55.5C34.8276 55.0493 34.689 54.6593 34.4116 54.33C34.1343 54.0007 33.7443 53.7493 33.2416 53.576C32.739 53.4027 32.1323 53.316 31.4216 53.316C30.5376 53.316 29.7576 53.4027 29.0816 53.576C28.423 53.7493 27.8943 53.94 27.4956 54.148C27.097 54.3387 26.8716 54.4687 26.8196 54.538L24.6356 51.808L25.8056 43.54H37.7656V48.09H28.1456L29.8356 45.906L28.9776 51.678L26.6636 51.314C27.1316 50.9673 27.6776 50.6553 28.3016 50.378C28.943 50.0833 29.6276 49.858 30.3556 49.702C31.0836 49.5287 31.829 49.442 32.5916 49.442C33.909 49.442 35.1136 49.702 36.2056 50.222C37.315 50.742 38.199 51.4787 38.8576 52.432C39.5336 53.3853 39.8716 54.512 39.8716 55.812C39.8716 57.008 39.5076 58.0913 38.7796 59.062C38.069 60.0153 37.0983 60.778 35.8676 61.35C34.6543 61.9047 33.2936 62.182 31.7856 62.182ZM51.8477 62.26C49.629 62.26 47.7743 61.87 46.2837 61.09C44.793 60.31 43.6663 59.218 42.9037 57.814C42.1583 56.41 41.7857 54.772 41.7857 52.9C41.7857 51.0107 42.1583 49.3727 42.9037 47.986C43.6663 46.582 44.793 45.49 46.2837 44.71C47.7743 43.93 49.629 43.54 51.8477 43.54C54.0317 43.54 55.8517 43.93 57.3077 44.71C58.7637 45.49 59.8557 46.582 60.5837 47.986C61.3117 49.3727 61.6757 51.0107 61.6757 52.9C61.6757 54.772 61.3117 56.41 60.5837 57.814C59.8557 59.218 58.7637 60.31 57.3077 61.09C55.8517 61.87 54.0317 62.26 51.8477 62.26ZM51.8477 57.632C53.269 57.632 54.3697 57.2247 55.1497 56.41C55.947 55.5953 56.3457 54.4253 56.3457 52.9C56.3457 51.288 55.947 50.0573 55.1497 49.208C54.3697 48.3413 53.269 47.908 51.8477 47.908C50.357 47.908 49.187 48.3413 48.3377 49.208C47.5057 50.0573 47.0897 51.288 47.0897 52.9C47.0897 54.4253 47.5057 55.5953 48.3377 56.41C49.187 57.2247 50.357 57.632 51.8477 57.632ZM73.775 62.26C71.5564 62.26 69.7017 61.87 68.211 61.09C66.7204 60.31 65.5937 59.218 64.831 57.814C64.0857 56.41 63.713 54.772 63.713 52.9C63.713 51.0107 64.0857 49.3727 64.831 47.986C65.5937 46.582 66.7204 45.49 68.211 44.71C69.7017 43.93 71.5564 43.54 73.775 43.54C75.959 43.54 77.779 43.93 79.235 44.71C80.691 45.49 81.783 46.582 82.511 47.986C83.239 49.3727 83.603 51.0107 83.603 52.9C83.603 54.772 83.239 56.41 82.511 57.814C81.783 59.218 80.691 60.31 79.235 61.09C77.779 61.87 75.959 62.26 73.775 62.26ZM73.775 57.632C75.1964 57.632 76.297 57.2247 77.077 56.41C77.8744 55.5953 78.273 54.4253 78.273 52.9C78.273 51.288 77.8744 50.0573 77.077 49.208C76.297 48.3413 75.1964 47.908 73.775 47.908C72.2844 47.908 71.1144 48.3413 70.265 49.208C69.433 50.0573 69.017 51.288 69.017 52.9C69.017 54.4253 69.433 55.5953 70.265 56.41C71.1144 57.2247 72.2844 57.632 73.775 57.632Z" fill="black"/>
<circle cx="53.5" cy="53.5" r="52" stroke="black" stroke-width="3"/>
</g>
<defs>
<filter id="filter0_d_318_193" x="0" y="0" width="108" height="109" filterUnits="userSpaceOnUse" color-interpolation-filters="sRGB">
<feFlood flood-opacity="0" result="BackgroundImageFix"/>
<feColorMatrix in="SourceAlpha" type="matrix" values="0 0 0 0 0 0 0 0 0 0 0 0 0 0 0 0 0 0 127 0" result="hardAlpha"/>
<feOffset dx="1" dy="2"/>
<feComposite in2="hardAlpha" operator="out"/>
<feColorMatrix type="matrix" values="0 0 0 0 0 0 0 0 0 0 0 0 0 0 0 0 0 0 1 0"/>
<feBlend mode="normal" in2="BackgroundImageFix" result="effect1_dropShadow_318_193"/>
<feBlend mode="normal" in="SourceGraphic" in2="effect1_dropShadow_318_193" result="shape"/>
</filter>
</defs>
</svg>
