<svg width="108" height="109" viewBox="0 0 108 109" fill="none" xmlns="http://www.w3.org/2000/svg">
<g filter="url(#filter0_d_318_145)">
<circle cx="53.5" cy="53.5" r="52" fill="#D9D9D9" stroke="black" stroke-width="3"/>
<path d="M79.5 9L75.5 5.5L61.5 1.5L53 2" stroke="black" stroke-linecap="round"/>
<path d="M53.8223 54.6701L97.4545 81.0175L97.1116 82.9997L94.1116 87.4997L85.6116 94.9997L78.784 98.9906L53.8223 54.6701L8.9998 27.6039L8 26.5L12.1257 20.5857L18.5 13.5L24 9.5L27 8L28.1005 9L53.8223 54.6701Z" fill="#0029FF"/>
<path d="M97.4545 81.0175L8.9998 27.6039L8 26.5L12.1257 20.5857L18.5 13.5L24 9.5L27 8L28.1005 9L78.784 98.9906L85.6116 94.9997L94.1116 87.4997L97.1116 82.9997L97.4545 81.0175Z" stroke="black" stroke-linecap="round"/>
<path d="M2.5 54.405H53L99.0062 29L100.5 29.405L104 37.405L105.5 45.405V54.405H53L8.99428 79.31L8.5 78.405L5.5 73.405L3 65.405L2 57.905L2.5 54.405Z" fill="#0029FF"/>
<path d="M53 2V54.405L79.5 9L78.5 7L67 2.5L58 1L53 2Z" fill="#0029FF"/>
<path d="M53 54.405H2.5L2 57.905L3 65.405L5.5 73.405L8.5 78.405L8.99428 79.31L53 54.405ZM53 54.405H105.5V45.405L104 37.405L100.5 29.405L99.0062 29L53 54.405ZM53 54.405V2L58 1L67 2.5L78.5 7L79.5 9L53 54.405ZM53 54.405L35.1658 84.5L27 98.5M53 54.405L52.66 89L52.5 105.5" stroke="black" stroke-linecap="round"/>
<path d="M27 98.5L36 103L48 105.5L52.5 105" stroke="black" stroke-linecap="round"/>
<path d="M35.5 84L52.5 88.5V106L39 104L27 98.5L35.5 84Z" fill="#0029FF"/>
<path d="M52.6006 54H52.9551L53 53.9238V53.4084L53.1485 53.6721L53.2661 53.8809L53.3332 54L53.7107 54.6703L53 54.2412L52.862 54.1578L52.8181 54.1313L52.6006 54Z" fill="#0029FF"/>
<path d="M2 54H105M8.49428 78.905L98.5062 28.595M97.3429 81.0178L8.88822 27.6042M78.6724 98.9908L28.0694 9.14326M53 105.5V2M27 98L79.5 9" stroke="black" stroke-width="3" stroke-linecap="round"/>
<circle cx="53" cy="53" r="35.5" fill="#00B5FF" stroke="black" stroke-width="3"/>
<path d="M38.1144 66.252C35.8344 66.252 33.7104 65.868 31.7424 65.1C29.7744 64.332 28.1184 63.372 26.7744 62.22L30.7704 57.36C31.6344 58.08 32.7024 58.716 33.9744 59.268C35.2464 59.796 36.5064 60.06 37.7544 60.06C38.7144 60.06 39.5304 59.94 40.2024 59.7C40.8744 59.46 41.3904 59.112 41.7504 58.656C42.1344 58.176 42.3264 57.624 42.3264 57C42.3264 56.376 42.1344 55.836 41.7504 55.38C41.3664 54.924 40.8264 54.576 40.1304 54.336C39.4344 54.096 38.5944 53.976 37.6104 53.976C36.3864 53.976 35.3064 54.096 34.3704 54.336C33.4584 54.576 32.7264 54.84 32.1744 55.128C31.6224 55.392 31.3104 55.572 31.2384 55.668L28.2144 51.888L29.8344 40.44H46.3944V46.74H33.0744L35.4144 43.716L34.2264 51.708L31.0224 51.204C31.6704 50.724 32.4264 50.292 33.2904 49.908C34.1784 49.5 35.1264 49.188 36.1344 48.972C37.1424 48.732 38.1744 48.612 39.2304 48.612C41.0544 48.612 42.7224 48.972 44.2344 49.692C45.7704 50.412 46.9944 51.432 47.9064 52.752C48.8424 54.072 49.3104 55.632 49.3104 57.432C49.3104 59.088 48.8064 60.588 47.7984 61.932C46.8144 63.252 45.4704 64.308 43.7664 65.1C42.0864 65.868 40.2024 66.252 38.1144 66.252ZM65.8926 66.36C62.8206 66.36 60.2526 65.82 58.1886 64.74C56.1246 63.66 54.5646 62.148 53.5086 60.204C52.4766 58.26 51.9606 55.992 51.9606 53.4C51.9606 50.784 52.4766 48.516 53.5086 46.596C54.5646 44.652 56.1246 43.14 58.1886 42.06C60.2526 40.98 62.8206 40.44 65.8926 40.44C68.9166 40.44 71.4366 40.98 73.4526 42.06C75.4686 43.14 76.9806 44.652 77.9886 46.596C78.9966 48.516 79.5006 50.784 79.5006 53.4C79.5006 55.992 78.9966 58.26 77.9886 60.204C76.9806 62.148 75.4686 63.66 73.4526 64.74C71.4366 65.82 68.9166 66.36 65.8926 66.36ZM65.8926 59.952C67.8606 59.952 69.3846 59.388 70.4646 58.26C71.5686 57.132 72.1206 55.512 72.1206 53.4C72.1206 51.168 71.5686 49.464 70.4646 48.288C69.3846 47.088 67.8606 46.488 65.8926 46.488C63.8286 46.488 62.2086 47.088 61.0326 48.288C59.8806 49.464 59.3046 51.168 59.3046 53.4C59.3046 55.512 59.8806 57.132 61.0326 58.26C62.2086 59.388 63.8286 59.952 65.8926 59.952Z" fill="black"/>
<circle cx="53.5" cy="53.5" r="52" stroke="black" stroke-width="3"/>
</g>
<defs>
<filter id="filter0_d_318_145" x="0" y="0" width="108" height="109" filterUnits="userSpaceOnUse" color-interpolation-filters="sRGB">
<feFlood flood-opacity="0" result="BackgroundImageFix"/>
<feColorMatrix in="SourceAlpha" type="matrix" values="0 0 0 0 0 0 0 0 0 0 0 0 0 0 0 0 0 0 127 0" result="hardAlpha"/>
<feOffset dx="1" dy="2"/>
<feComposite in2="hardAlpha" operator="out"/>
<feColorMatrix type="matrix" values="0 0 0 0 0 0 0 0 0 0 0 0 0 0 0 0 0 0 1 0"/>
<feBlend mode="normal" in2="BackgroundImageFix" result="effect1_dropShadow_318_145"/>
<feBlend mode="normal" in="SourceGraphic" in2="effect1_dropShadow_318_145" result="shape"/>
</filter>
</defs>
</svg>
