<svg width="108" height="109" viewBox="0 0 108 109" fill="none" xmlns="http://www.w3.org/2000/svg">
<g filter="url(#filter0_d_318_181)">
<circle cx="53.5" cy="53.5" r="52" fill="#D9D9D9" stroke="black" stroke-width="3"/>
<path d="M79.5 9L75.5 5.5L61.5 1.5L53 2" stroke="black" stroke-linecap="round"/>
<path d="M53.8223 54.6701L97.4545 81.0175L97.1116 82.9997L94.1116 87.4997L85.6116 94.9997L78.784 98.9906L53.8223 54.6701L8.9998 27.6039L8 26.5L12.1257 20.5857L18.5 13.5L24 9.5L27 8L28.1005 9L53.8223 54.6701Z" fill="#D50000"/>
<path d="M97.4545 81.0175L8.9998 27.6039L8 26.5L12.1257 20.5857L18.5 13.5L24 9.5L27 8L28.1005 9L78.784 98.9906L85.6116 94.9997L94.1116 87.4997L97.1116 82.9997L97.4545 81.0175Z" stroke="black" stroke-linecap="round"/>
<path d="M2.5 54.405H53L99.0062 29L100.5 29.405L104 37.405L105.5 45.405V54.405H53L8.99428 79.31L8.5 78.405L5.5 73.405L3 65.405L2 57.905L2.5 54.405Z" fill="#D50000"/>
<path d="M53 2V54.405L79.5 9L78.5 7L67 2.5L58 1L53 2Z" fill="#D50000"/>
<path d="M53 54.405H2.5L2 57.905L3 65.405L5.5 73.405L8.5 78.405L8.99428 79.31L53 54.405ZM53 54.405H105.5V45.405L104 37.405L100.5 29.405L99.0062 29L53 54.405ZM53 54.405V2L58 1L67 2.5L78.5 7L79.5 9L53 54.405ZM53 54.405L35.1658 84.5L27 98.5M53 54.405L52.66 89L52.5 105.5" stroke="black" stroke-linecap="round"/>
<path d="M27 98.5L36 103L48 105.5L52.5 105" stroke="black" stroke-linecap="round"/>
<path d="M35.5 84L52.5 88.5V106L39 104L27 98.5L35.5 84Z" fill="#D50000"/>
<path d="M52.6006 54H52.9551L53 53.9238V53.4084L53.1485 53.6721L53.2661 53.8809L53.3332 54L53.7107 54.6703L53 54.2412L52.862 54.1578L52.8181 54.1313L52.6006 54Z" fill="#0029FF"/>
<path d="M2 54H105M8.49428 78.905L98.5062 28.595M97.3429 81.0178L8.88822 27.6042M78.6724 98.9908L28.0694 9.14326M53 105.5V2M27 98L79.5 9" stroke="black" stroke-width="3" stroke-linecap="round"/>
<circle cx="53" cy="53" r="35.5" fill="#DD7878" stroke="black" stroke-width="3"/>
<path d="M29.8688 60.726V45.958L30.9088 48.584L25.9168 50.898L24.9028 46.01L30.1548 43.54H35.3028V60.726H29.8688ZM25.1628 62V57.216H39.3068V62H25.1628ZM51.8526 62.26C49.6339 62.26 47.7792 61.87 46.2886 61.09C44.7979 60.31 43.6712 59.218 42.9086 57.814C42.1632 56.41 41.7906 54.772 41.7906 52.9C41.7906 51.0107 42.1632 49.3727 42.9086 47.986C43.6712 46.582 44.7979 45.49 46.2886 44.71C47.7792 43.93 49.6339 43.54 51.8526 43.54C54.0366 43.54 55.8566 43.93 57.3126 44.71C58.7686 45.49 59.8606 46.582 60.5886 47.986C61.3166 49.3727 61.6806 51.0107 61.6806 52.9C61.6806 54.772 61.3166 56.41 60.5886 57.814C59.8606 59.218 58.7686 60.31 57.3126 61.09C55.8566 61.87 54.0366 62.26 51.8526 62.26ZM51.8526 57.632C53.2739 57.632 54.3746 57.2247 55.1546 56.41C55.9519 55.5953 56.3506 54.4253 56.3506 52.9C56.3506 51.288 55.9519 50.0573 55.1546 49.208C54.3746 48.3413 53.2739 47.908 51.8526 47.908C50.3619 47.908 49.1919 48.3413 48.3426 49.208C47.5106 50.0573 47.0946 51.288 47.0946 52.9C47.0946 54.4253 47.5106 55.5953 48.3426 56.41C49.1919 57.2247 50.3619 57.632 51.8526 57.632ZM73.7799 62.26C71.5612 62.26 69.7066 61.87 68.2159 61.09C66.7252 60.31 65.5986 59.218 64.8359 57.814C64.0906 56.41 63.7179 54.772 63.7179 52.9C63.7179 51.0107 64.0906 49.3727 64.8359 47.986C65.5986 46.582 66.7252 45.49 68.2159 44.71C69.7066 43.93 71.5612 43.54 73.7799 43.54C75.9639 43.54 77.7839 43.93 79.2399 44.71C80.6959 45.49 81.7879 46.582 82.5159 47.986C83.2439 49.3727 83.6079 51.0107 83.6079 52.9C83.6079 54.772 83.2439 56.41 82.5159 57.814C81.7879 59.218 80.6959 60.31 79.2399 61.09C77.7839 61.87 75.9639 62.26 73.7799 62.26ZM73.7799 57.632C75.2012 57.632 76.3019 57.2247 77.0819 56.41C77.8792 55.5953 78.2779 54.4253 78.2779 52.9C78.2779 51.288 77.8792 50.0573 77.0819 49.208C76.3019 48.3413 75.2012 47.908 73.7799 47.908C72.2892 47.908 71.1192 48.3413 70.2699 49.208C69.4379 50.0573 69.0219 51.288 69.0219 52.9C69.0219 54.4253 69.4379 55.5953 70.2699 56.41C71.1192 57.2247 72.2892 57.632 73.7799 57.632Z" fill="black"/>
<circle cx="53.5" cy="53.5" r="52" stroke="black" stroke-width="3"/>
</g>
<defs>
<filter id="filter0_d_318_181" x="0" y="0" width="108" height="109" filterUnits="userSpaceOnUse" color-interpolation-filters="sRGB">
<feFlood flood-opacity="0" result="BackgroundImageFix"/>
<feColorMatrix in="SourceAlpha" type="matrix" values="0 0 0 0 0 0 0 0 0 0 0 0 0 0 0 0 0 0 127 0" result="hardAlpha"/>
<feOffset dx="1" dy="2"/>
<feComposite in2="hardAlpha" operator="out"/>
<feColorMatrix type="matrix" values="0 0 0 0 0 0 0 0 0 0 0 0 0 0 0 0 0 0 1 0"/>
<feBlend mode="normal" in2="BackgroundImageFix" result="effect1_dropShadow_318_181"/>
<feBlend mode="normal" in="SourceGraphic" in2="effect1_dropShadow_318_181" result="shape"/>
</filter>
</defs>
</svg>
