<svg width="108" height="109" viewBox="0 0 108 109" fill="none" xmlns="http://www.w3.org/2000/svg">
<g filter="url(#filter0_d_318_205)">
<circle cx="53.5" cy="53.5" r="52" fill="#D9D9D9" stroke="black" stroke-width="3"/>
<path d="M79.5 9L75.5 5.5L61.5 1.5L53 2" stroke="black" stroke-linecap="round"/>
<path d="M53.8223 54.6701L97.4545 81.0175L97.1116 82.9997L94.1116 87.4997L85.6116 94.9997L78.784 98.9906L53.8223 54.6701L8.9998 27.6039L8 26.5L12.1257 20.5857L18.5 13.5L24 9.5L27 8L28.1005 9L53.8223 54.6701Z" fill="#D67300"/>
<path d="M97.4545 81.0175L8.9998 27.6039L8 26.5L12.1257 20.5857L18.5 13.5L24 9.5L27 8L28.1005 9L78.784 98.9906L85.6116 94.9997L94.1116 87.4997L97.1116 82.9997L97.4545 81.0175Z" stroke="black" stroke-linecap="round"/>
<path d="M2.5 54.405H53L99.0062 29L100.5 29.405L104 37.405L105.5 45.405V54.405H53L8.99428 79.31L8.5 78.405L5.5 73.405L3 65.405L2 57.905L2.5 54.405Z" fill="#D67300"/>
<path d="M53 2V54.405L79.5 9L78.5 7L67 2.5L58 1L53 2Z" fill="#D67300"/>
<path d="M53 54.405H2.5L2 57.905L3 65.405L5.5 73.405L8.5 78.405L8.99428 79.31L53 54.405ZM53 54.405H105.5V45.405L104 37.405L100.5 29.405L99.0062 29L53 54.405ZM53 54.405V2L58 1L67 2.5L78.5 7L79.5 9L53 54.405ZM53 54.405L35.1658 84.5L27 98.5M53 54.405L52.66 89L52.5 105.5" stroke="black" stroke-linecap="round"/>
<path d="M27 98.5L36 103L48 105.5L52.5 105" stroke="black" stroke-linecap="round"/>
<path d="M35.5 84L52.5 88.5V106L39 104L27 98.5L35.5 84Z" fill="#D67300"/>
<path d="M52.6006 54H52.9551L53 53.9238V53.4084L53.1485 53.6721L53.2661 53.8809L53.3332 54L53.7107 54.6703L53 54.2412L52.862 54.1578L52.8181 54.1313L52.6006 54Z" fill="#0029FF"/>
<path d="M2 54H105M8.49428 78.905L98.5062 28.595M97.3429 81.0178L8.88822 27.6042M78.6724 98.9908L28.0694 9.14326M53 105.5V2M27 98L79.5 9" stroke="black" stroke-width="3" stroke-linecap="round"/>
<circle cx="53" cy="53" r="35.5" fill="#FFA07A" stroke="black" stroke-width="3"/>
<path d="M49.9484 64.236V43.788L51.3884 47.424L44.4764 50.628L43.0724 43.86L50.3444 40.44H57.4724V64.236H49.9484ZM43.4324 66V59.376H63.0164V66H43.4324Z" fill="black"/>
<circle cx="53.5" cy="53.5" r="52" stroke="black" stroke-width="3"/>
</g>
<defs>
<filter id="filter0_d_318_205" x="0" y="0" width="108" height="109" filterUnits="userSpaceOnUse" color-interpolation-filters="sRGB">
<feFlood flood-opacity="0" result="BackgroundImageFix"/>
<feColorMatrix in="SourceAlpha" type="matrix" values="0 0 0 0 0 0 0 0 0 0 0 0 0 0 0 0 0 0 127 0" result="hardAlpha"/>
<feOffset dx="1" dy="2"/>
<feComposite in2="hardAlpha" operator="out"/>
<feColorMatrix type="matrix" values="0 0 0 0 0 0 0 0 0 0 0 0 0 0 0 0 0 0 1 0"/>
<feBlend mode="normal" in2="BackgroundImageFix" result="effect1_dropShadow_318_205"/>
<feBlend mode="normal" in="SourceGraphic" in2="effect1_dropShadow_318_205" result="shape"/>
</filter>
</defs>
</svg>
