<svg width="108" height="109" viewBox="0 0 108 109" fill="none" xmlns="http://www.w3.org/2000/svg">
<g filter="url(#filter0_d_318_157)">
<circle cx="53.5" cy="53.5" r="52" fill="#D9D9D9" stroke="black" stroke-width="3"/>
<path d="M79.5 9L75.5 5.5L61.5 1.5L53 2" stroke="black" stroke-linecap="round"/>
<path d="M53.8223 54.6701L97.4545 81.0175L97.1116 82.9997L94.1116 87.4997L85.6116 94.9997L78.784 98.9906L53.8223 54.6701L8.9998 27.6039L8 26.5L12.1257 20.5857L18.5 13.5L24 9.5L27 8L28.1005 9L53.8223 54.6701Z" fill="#00A600"/>
<path d="M97.4545 81.0175L8.9998 27.6039L8 26.5L12.1257 20.5857L18.5 13.5L24 9.5L27 8L28.1005 9L78.784 98.9906L85.6116 94.9997L94.1116 87.4997L97.1116 82.9997L97.4545 81.0175Z" stroke="black" stroke-linecap="round"/>
<path d="M2.5 54.405H53L99.0062 29L100.5 29.405L104 37.405L105.5 45.405V54.405H53L8.99428 79.31L8.5 78.405L5.5 73.405L3 65.405L2 57.905L2.5 54.405Z" fill="#00A600"/>
<path d="M53 2V54.405L79.5 9L78.5 7L67 2.5L58 1L53 2Z" fill="#00A600"/>
<path d="M53 54.405H2.5L2 57.905L3 65.405L5.5 73.405L8.5 78.405L8.99428 79.31L53 54.405ZM53 54.405H105.5V45.405L104 37.405L100.5 29.405L99.0062 29L53 54.405ZM53 54.405V2L58 1L67 2.5L78.5 7L79.5 9L53 54.405ZM53 54.405L35.1658 84.5L27 98.5M53 54.405L52.66 89L52.5 105.5" stroke="black" stroke-linecap="round"/>
<path d="M27 98.5L36 103L48 105.5L52.5 105" stroke="black" stroke-linecap="round"/>
<path d="M35.5 84L52.5 88.5V106L39 104L27 98.5L35.5 84Z" fill="#00A600"/>
<path d="M52.6006 54H52.9551L53 53.9238V53.4084L53.1485 53.6721L53.2661 53.8809L53.3332 54L53.7107 54.6703L53 54.2412L52.862 54.1578L52.8181 54.1313L52.6006 54Z" fill="#0029FF"/>
<path d="M2 54H105M8.49428 78.905L98.5062 28.595M97.3429 81.0178L8.88822 27.6042M78.6724 98.9908L28.0694 9.14326M53 105.5V2M27 98L79.5 9" stroke="black" stroke-width="3" stroke-linecap="round"/>
<circle cx="53" cy="53" r="35.5" fill="#90EE90" stroke="black" stroke-width="3"/>
<path d="M35.268 64.236V43.788L36.708 47.424L29.796 50.628L28.392 43.86L35.664 40.44H42.792V64.236H35.268ZM28.752 66V59.376H48.336V66H28.752ZM65.7071 66.36C62.6351 66.36 60.0671 65.82 58.0031 64.74C55.9391 63.66 54.3791 62.148 53.3231 60.204C52.2911 58.26 51.7751 55.992 51.7751 53.4C51.7751 50.784 52.2911 48.516 53.3231 46.596C54.3791 44.652 55.9391 43.14 58.0031 42.06C60.0671 40.98 62.6351 40.44 65.7071 40.44C68.7311 40.44 71.2511 40.98 73.2671 42.06C75.2831 43.14 76.7951 44.652 77.8031 46.596C78.8111 48.516 79.3151 50.784 79.3151 53.4C79.3151 55.992 78.8111 58.26 77.8031 60.204C76.7951 62.148 75.2831 63.66 73.2671 64.74C71.2511 65.82 68.7311 66.36 65.7071 66.36ZM65.7071 59.952C67.6751 59.952 69.1991 59.388 70.2791 58.26C71.3831 57.132 71.9351 55.512 71.9351 53.4C71.9351 51.168 71.3831 49.464 70.2791 48.288C69.1991 47.088 67.6751 46.488 65.7071 46.488C63.6431 46.488 62.0231 47.088 60.8471 48.288C59.6951 49.464 59.1191 51.168 59.1191 53.4C59.1191 55.512 59.6951 57.132 60.8471 58.26C62.0231 59.388 63.6431 59.952 65.7071 59.952Z" fill="black"/>
<circle cx="53.5" cy="53.5" r="52" stroke="black" stroke-width="3"/>
</g>
<defs>
<filter id="filter0_d_318_157" x="0" y="0" width="108" height="109" filterUnits="userSpaceOnUse" color-interpolation-filters="sRGB">
<feFlood flood-opacity="0" result="BackgroundImageFix"/>
<feColorMatrix in="SourceAlpha" type="matrix" values="0 0 0 0 0 0 0 0 0 0 0 0 0 0 0 0 0 0 127 0" result="hardAlpha"/>
<feOffset dx="1" dy="2"/>
<feComposite in2="hardAlpha" operator="out"/>
<feColorMatrix type="matrix" values="0 0 0 0 0 0 0 0 0 0 0 0 0 0 0 0 0 0 1 0"/>
<feBlend mode="normal" in2="BackgroundImageFix" result="effect1_dropShadow_318_157"/>
<feBlend mode="normal" in="SourceGraphic" in2="effect1_dropShadow_318_157" result="shape"/>
</filter>
</defs>
</svg>
